<?xml version="1.0" encoding="UTF-8"?>
<svg width="30px" height="30px" viewBox="0 0 30 30" version="1.1" xmlns="http://www.w3.org/2000/svg" xmlns:xlink="http://www.w3.org/1999/xlink">
    <title>UI/Icons/Social/Facebook-White</title>
    <g id="UI/Icons/Social/Facebook-White" stroke="none" stroke-width="1" fill="none" fill-rule="evenodd">
        <rect id="Bounding-box" x="0" y="0" width="30" height="30"></rect>
        <path d="M15.5,3 C22.4207317,3 28,8.57926829 28,15.5 C28,22.4207317 22.4207317,28 15.5,28 C8.57926829,28 3,22.4207317 3,15.5 C3,8.57926829 8.57926829,3 15.5,3 Z M17.6417248,7.66666667 C15.319658,7.66666667 13.7292929,9.02321425 13.7292929,11.5155505 L13.7292929,11.5155505 L13.7292929,13.8095237 L11.1666667,13.8095237 L11.1666667,16.7209819 L13.7292929,16.7209819 L13.7292929,24.0476187 L16.8699299,24.0476187 L16.8699299,16.7209819 L19.3289819,16.7209819 L19.719891,13.8095237 L16.8699299,13.8095237 L16.8699299,11.8034969 C16.8699299,10.9620535 17.1138305,10.3861607 18.3767675,10.3861607 L18.3767675,10.3861607 L19.9871793,10.3861607 L19.9871793,7.78184524 C19.7098677,7.74665178 18.7543122,7.66666667 17.6417248,7.66666667 Z" id="Combined-Shape" fill="#FFFFFF"></path>
    </g>
</svg>