<svg width="16" height="20" xmlns="http://www.w3.org/2000/svg">
    <path d="M4.667 4.667c.377 0 .666.289.666.666A.655.655 0 0 1 4.667 6H1.333v12h13.334V6h-3.334a.655.655 0 0 1-.666-.667c0-.377.289-.666.666-.666h4c.378 0 .667.289.667.666v13.334a.655.655 0 0 1-.667.666H.667A.655.655 0 0 1 0 18.667V5.333c0-.377.289-.666.667-.666zm3.351-4c.379 0 .669.282.669.65v10.558l2.853-2.623a.66.66 0 0 1 .937.022.617.617 0 0 1-.022.91l-4.013 3.643a.673.673 0 0 1-.446.173.72.72 0 0 1-.446-.173l-4.013-3.643a.635.635 0 0 1-.022-.91c.245-.26.668-.26.936-.022l2.898 2.623V1.317c0-.368.29-.65.669-.65z" fill="#FFF" fill-rule="evenodd"/>
</svg>
