<?xml version="1.0" encoding="UTF-8"?>
<svg width="30px" height="30px" viewBox="0 0 30 30" version="1.1" xmlns="http://www.w3.org/2000/svg" xmlns:xlink="http://www.w3.org/1999/xlink">
    <title>UI/Icons/Social/Instagram-White</title>
    <g id="UI/Icons/Social/Instagram-White" stroke="none" stroke-width="1" fill="none" fill-rule="evenodd">
        <rect id="Bounding-box" x="0" y="0" width="30" height="30"></rect>
        <path d="M15.5,3 C22.4207317,3 28,8.57926829 28,15.5 C28,22.4207317 22.4207317,28 15.5,28 C8.57926829,28 3,22.4207317 3,15.5 C3,8.57926829 8.57926829,3 15.5,3 Z M19.274215,9.5 L11.689421,9.5 C10.3722227,9.5 9.3,10.5714957 9.3,11.889421 L9.3,19.474215 C9.3,20.7921403 10.3722227,21.863636 11.689421,21.863636 L19.274215,21.863636 C20.5914133,21.863636 21.663636,20.7921403 21.663636,19.474215 L21.663636,11.889421 C21.663636,10.5714957 20.5914133,9.5 19.274215,9.5 Z M12.3509278,14.4125971 C12.1910031,14.8051397 12.1015906,15.2333018 12.1015906,15.681818 C12.1015906,17.5456681 13.6179679,19.0627723 15.481818,19.0627723 C17.346395,19.0627723 18.8627723,17.5456681 18.8627723,15.681818 C18.8627723,15.2333018 18.771906,14.8051397 18.6134351,14.4125971 L20.459112,14.4125971 L20.459112,19.474215 C20.459112,20.1277257 19.9277257,20.659112 19.274215,20.659112 L11.689421,20.659112 C11.0359103,20.659112 10.504524,20.1277257 10.504524,19.474215 L10.504524,14.4125971 L12.3509278,14.4125971 Z M15.481818,13.5053877 C16.2080217,13.5053877 16.8506284,13.8644914 17.2460786,14.4125971 C17.504139,14.770247 17.6582483,15.2078592 17.6582483,15.681818 C17.6582483,16.8812535 16.6819805,17.8575213 15.481818,17.8575213 C14.2823825,17.8575213 13.3061147,16.8812535 13.3061147,15.681818 C13.3061147,15.2078592 13.4602239,14.770247 13.7175574,14.4125971 C14.1130076,13.8644914 14.7556143,13.5053877 15.481818,13.5053877 Z M20.2330365,10.9240571 L20.2330365,13.0197981 L18.1438379,13.0263404 L18.1365686,10.9305995 L19.9597106,10.9255109 L20.2330365,10.9240571 Z" id="Combined-Shape" fill="#FFFFFF"></path>
    </g>
</svg>