<?xml version="1.0" encoding="UTF-8"?>
<svg width="30px" height="30px" viewBox="0 0 30 30" version="1.1" xmlns="http://www.w3.org/2000/svg" xmlns:xlink="http://www.w3.org/1999/xlink">
    <title>UI/Icons/Social/Linkedin-White</title>
    <g id="UI/Icons/Social/Linkedin-White" stroke="none" stroke-width="1" fill="none" fill-rule="evenodd">
        <rect id="Bounding-box" x="0" y="0" width="30" height="30"></rect>
        <path d="M15.5,3 C22.4207317,3 28,8.57926829 28,15.5 C28,22.4207317 22.4207317,28 15.5,28 C8.57926829,28 3,22.4207317 3,15.5 C3,8.57926829 8.57926829,3 15.5,3 Z M18.7894664,12.7135645 C17.3090732,12.7135645 16.6498723,13.4994711 16.277838,14.0509824 L16.277838,14.0509824 L16.277838,12.9035029 L13.4925635,12.9035029 C13.5014521,13.0839832 13.5061179,13.6355403 13.5080655,14.3716981 L13.5088673,14.7904254 L13.5088673,14.7904254 L13.509083,15.0114181 L13.5090322,15.7664474 C13.5089686,15.8531353 13.5088872,15.9405802 13.5087893,16.0286071 L13.5080156,16.5623522 C13.505011,18.2657939 13.4970793,20.0529886 13.4939048,20.723719 L13.4939048,20.723719 L13.4930718,20.8970163 C13.4929631,20.9192471 13.4928704,20.9380353 13.4927951,20.9532059 L13.4925635,20.9994175 L16.2772032,20.9994175 L16.2772032,16.4779018 C16.2772032,16.2377731 16.2993882,15.994425 16.3725446,15.820767 C16.5757321,15.3383326 17.0307298,14.8370117 17.801998,14.8370117 C18.8105405,14.8370117 19.2124721,15.5773883 19.2124721,16.6668898 L19.2124721,16.6668898 L19.2124721,21 L22,21 L22,16.3581441 C22,13.8704872 20.6268182,12.7135645 18.7894664,12.7135645 Z M11.9521536,12.903043 L9.16624431,12.903043 L9.16624431,21 L11.9521536,21 L11.9521536,12.903043 Z M10.5767501,9 C9.62397156,9 9,9.60384782 9,10.4003015 C9,11.1751705 9.60562693,11.7994992 10.5410447,11.7994992 L10.5410447,11.7994992 L10.5577707,11.7994992 L10.725755,11.7931147 C11.6006477,11.7255279 12.1351239,11.12959 12.1351239,10.4003015 C12.1161762,9.60384782 11.5317503,9 10.5767501,9 Z" id="Combined-Shape" fill="#FFFFFF"></path>
    </g>
</svg>