<svg width="65" height="65" xmlns="http://www.w3.org/2000/svg" xmlns:xlink="http://www.w3.org/1999/xlink">
    <defs>
        <path d="M32.5 0C14.506 0 0 14.506 0 32.5S14.506 65 32.5 65 65 50.494 65 32.5 50.494 0 32.5 0zm14.427 34.006L25.287 46.69c-.238.159-.635.238-.872.238-.238 0-.635-.08-.872-.238-.555-.396-.872-.872-.872-1.506V19.896h-.08c0-.634.397-1.268.872-1.506.476-.238 1.269-.396 1.824 0l21.64 12.604c.555.396.872.872.872 1.506s-.397 1.268-.872 1.506z" id="a"/>
    </defs>
    <use fill="#FFF" fill-rule="nonzero" xlink:href="#a"/>
</svg>
