<?xml version="1.0" encoding="UTF-8"?>
<svg width="30px" height="30px" viewBox="0 0 30 30" version="1.1" xmlns="http://www.w3.org/2000/svg" xmlns:xlink="http://www.w3.org/1999/xlink">
    <title>UI/Icons/Social/Twitter-White</title>
    <defs>
        <path d="M15.5,3 C22.4207317,3 28,8.57926829 28,15.5 C28,22.4207317 22.4207317,28 15.5,28 C8.57926829,28 3,22.4207317 3,15.5 C3,8.57926829 8.57926829,3 15.5,3 Z M19.7050621,10.5 C18.0622982,10.5 16.7304123,11.8117761 16.7304123,13.428767 C16.7304123,13.6581448 16.756652,13.8821265 16.8074433,14.0962202 C14.3356713,13.9739768 12.143888,12.8076911 10.6769536,11.0354093 C10.42048,11.4673302 10.2745921,11.9705963 10.2745921,12.507814 C10.2745921,13.5242633 10.8001557,14.4210651 11.5974748,14.9457406 C11.110086,14.9297856 10.651632,14.7976251 10.2501886,14.5781936 L10.2501886,14.6147412 C10.2501886,16.0336225 11.2758758,17.2177883 12.6358968,17.487243 C12.3867087,17.5533379 12.1239861,17.5898855 11.8521122,17.5898855 C11.6600827,17.5898855 11.4742726,17.5712179 11.2921941,17.5354287 C11.6709518,18.6999935 12.7690498,19.5468887 14.0701944,19.5701357 C13.0527108,20.3553987 11.7696319,20.822088 10.3761746,20.822088 C10.1360193,20.822088 9.89953643,20.807854 9.66666667,20.7819819 C10.9831819,21.6145265 12.5462199,22.1 14.2261221,22.1 C19.6978951,22.1 22.6888633,17.6362627 22.6888633,13.7652208 L22.6787939,13.3859483 C23.2632635,12.9754075 23.7688068,12.4596284 24.1666667,11.8725041 C23.6328698,12.105382 23.0603354,12.263298 22.4586589,12.3338264 C23.0729518,11.9715005 23.5432225,11.3968018 23.7661413,10.7142104 C23.1899049,11.0496433 22.5537556,11.2933426 21.8760551,11.4254157 C21.333255,10.8551506 20.5612576,10.5 19.7050621,10.5 Z" id="path-1"></path>
    </defs>
    <g id="UI/Icons/Social/Twitter-White" stroke="none" stroke-width="1" fill="none" fill-rule="evenodd">
        <rect id="Bounding-box" x="0" y="0" width="30" height="30"></rect>
        <mask id="mask-2" fill="white">
            <use xlink:href="#path-1"></use>
        </mask>
        <use id="Combined-Shape" fill="#FFFFFF" xlink:href="#path-1"></use>
    </g>
</svg>