<svg width="124" height="16" viewBox="0 0 124 16" xmlns="http://www.w3.org/2000/svg">
    <defs>
        <radialGradient cx="799.43%" cy="-113.483%" fx="799.43%" fy="-113.483%" r="2860.354%" gradientTransform="scale(-.2807 -1) rotate(-4.822 16.71 433.138)" id="b">
            <stop stop-color="#E59D30" offset="0%"/>
            <stop stop-color="#DF5233" offset="100%"/>
        </radialGradient>
        <filter color-interpolation-filters="auto" id="a">
            <feColorMatrix in="SourceGraphic" values="0 0 0 0 0.913725 0 0 0 0 0.556863 0 0 0 0 0.329412 0 0 0 1.000000 0"/>
        </filter>
    </defs>
    <g fill="none" fill-rule="evenodd">
        <path d="M3.196 2v5.405h4.608V2H11v14H7.804v-5.826H3.196V16H0V2h3.196zm18.799 0c2.541 0 4.557.767 6.046 2.3C29.347 5.647 30 7.215 30 9.005c0 1.783-.653 3.348-1.959 4.695-1.49 1.534-3.505 2.3-6.046 2.3-2.535 0-4.547-.766-6.036-2.3C14.653 12.353 14 10.788 14 9.005c0-.815.176-1.65.53-2.507A6.86 6.86 0 0 1 15.948 4.3C17.438 2.767 19.453 2 21.995 2zm15.457 0 2.581 7.467L42.763 2h3.31L48 16h-3.32l-.943-8.061L40.654 16h-1.317l-2.943-8.061L35.31 16H32l2.17-14h3.282zM57 2v3.036h-3.802v2.39h3.595v3.036h-3.595v2.502H57V16h-7V2h7zM22.528 5c-.898 0-1.711.209-2.44.627-.729.418-1.247.974-1.556 1.67a2.94 2.94 0 0 0-.265 1.208c0 .841.338 1.595 1.015 2.26.84.823 1.921 1.235 3.246 1.235s2.41-.409 3.256-1.226c.678-.653 1.016-1.41 1.016-2.27 0-.878-.338-1.637-1.016-2.278C24.916 5.41 23.83 5 22.528 5z" fill="#393939"/>
        <g filter="url(#a)">
            <path d="M3.182 2v10.964H7V16H0V2h3.182zm13.813-2c2.541 0 4.556.876 6.046 2.628C24.347 4.168 25 5.96 25 8.006c0 2.038-.653 3.826-1.959 5.366C21.551 15.124 19.536 16 16.995 16c-2.534 0-4.546-.876-6.036-2.628C9.653 11.832 9 10.044 9 8.006c0-.932.177-1.887.53-2.865.353-.979.825-1.816 1.418-2.513C12.438.876 14.454 0 16.995 0zm14.75 0c1.467 0 2.71.456 3.728 1.367.727.647 1.348 1.603 1.863 2.867l-3.054 1.533c-.261-.702-.566-1.23-.912-1.58-.499-.498-1.091-.746-1.778-.746-1.405 0-2.383.876-2.936 2.629a6.52 6.52 0 0 0-.31 2.002c0 1.43.373 2.622 1.121 3.575.553.711 1.292 1.067 2.216 1.067.82 0 1.471-.29 1.951-.867.317-.38.523-.944.62-1.691H31.6V7.179H38c0 1.632-.151 2.962-.454 3.991-.461 1.566-1.222 2.772-2.282 3.617-1.025.809-2.237 1.213-3.637 1.213-2.279 0-4.027-.941-5.245-2.823C25.46 11.751 25 10.05 25 8.072c0-2.19.54-4.032 1.618-5.525C27.842.85 29.551 0 31.746 0zm17.25 0c2.541 0 4.556.876 6.046 2.628C56.347 4.168 57 5.96 57 8.006c0 2.038-.653 3.826-1.959 5.366C53.551 15.124 51.536 16 48.995 16c-2.534 0-4.546-.876-6.036-2.628C41.653 11.832 41 10.044 41 8.006c0-.932.177-1.887.53-2.865.353-.979.826-1.816 1.418-2.513C44.438.876 46.454 0 48.995 0zm-32 3.783c-.864 0-1.646.252-2.346.755-.701.504-1.2 1.174-1.497 2.012a4.32 4.32 0 0 0-.255 1.456c0 1.014.325 1.922.976 2.723.807.992 1.848 1.488 3.122 1.488 1.274 0 2.318-.492 3.132-1.477.65-.787.976-1.698.976-2.734 0-1.059-.325-1.974-.976-2.746-.835-.985-1.88-1.477-3.132-1.477zm32 0c-.864 0-1.646.252-2.346.755-.701.504-1.2 1.174-1.497 2.012a4.32 4.32 0 0 0-.255 1.456c0 1.014.325 1.922.976 2.723.807.992 1.848 1.488 3.122 1.488 1.274 0 2.318-.492 3.132-1.477a4.16 4.16 0 0 0 .976-2.734c0-1.059-.325-1.974-.976-2.746-.835-.985-1.88-1.477-3.132-1.477z" fill="url(#b)" transform="translate(67)"/>
        </g>
    </g>
</svg>
