<svg width="100" height="95" viewBox="0 0 100 95" xmlns="http://www.w3.org/2000/svg" xmlns:xlink="http://www.w3.org/1999/xlink">
    <defs>
        <path d="M38.3 6.106a22.346 22.346 0 0 1-15.278 8.163V9.187a.56.56 0 0 0 .45-.551c-.008-.949.122-2.843 1.228-3.662a.14.14 0 0 1 .222.111c0 .076.062.138.139.138h2.131c.077 0 .14.062.14.138v.297c0 .076.061.138.138.138h2.777a.138.138 0 0 0 .139-.138V.138a.138.138 0 0 0-.14-.138H27.47a.138.138 0 0 0-.139.138v.23a.138.138 0 0 1-.139.137h-2.131a.138.138 0 0 0-.139.138v.264a.138.138 0 0 1-.139.138h-6.772c-5.26.032-8.36 5.384-8.392 5.458 0 0 4.136-2.47 7.94-1.516 1.411.354 1.583 2.705 1.6 3.72.004.225.16.411.368.47v5.149a22.346 22.346 0 0 1-16.01-8.22L0 9.746a27.394 27.394 0 0 0 19.527 9.599c.458.023.918.036 1.382.036.711 0 1.415-.03 2.113-.082a27.392 27.392 0 0 0 18.796-9.552l-3.517-3.64" id="a"/>
        <path id="d" d="M3.636 7.238H0V0h1.653v5.668h1.983v1.57"/>
        <path d="M6.189 4.074c0-.538-.166-1.004-.5-1.397-.426-.501-.96-.752-1.6-.752-.442 0-.842.128-1.2.385a2.09 2.09 0 0 0-.766 1.024c-.087.243-.13.49-.13.74 0 .516.166.979.5 1.386.412.505.944.758 1.595.758.652 0 1.185-.251 1.602-.752.333-.4.499-.864.499-1.392zm1.993 0A4.083 4.083 0 0 1 7.18 6.805c-.762.892-1.792 1.338-3.092 1.338-1.296 0-2.325-.446-3.086-1.338A4.082 4.082 0 0 1 0 4.075c0-.475.09-.96.27-1.459.181-.498.423-.924.726-1.278C1.758.446 2.79 0 4.088 0c1.3 0 2.33.446 3.092 1.338a4.09 4.09 0 0 1 1.002 2.736z" id="g"/>
        <path d="M6.753 3.653c0 .831-.078 1.508-.236 2.032-.24.797-.634 1.41-1.185 1.84-.532.412-1.162.618-1.89.618-1.183 0-2.091-.479-2.724-1.437C.239 5.98 0 5.114 0 4.108c0-1.115.28-2.052.84-2.812C1.477.432 2.365 0 3.505 0c.762 0 1.408.232 1.936.696.378.33.7.816.969 1.459l-1.587.78c-.136-.357-.294-.626-.474-.804a1.277 1.277 0 0 0-.924-.38c-.73 0-1.238.446-1.525 1.338a3.256 3.256 0 0 0-.161 1.019c0 .728.194 1.334.583 1.82.287.362.67.543 1.15.543.427 0 .765-.148 1.014-.442.165-.194.272-.48.322-.86H3.43V3.653h3.324" id="j"/>
        <path d="M6.19 4.074c0-.538-.167-1.004-.5-1.397-.427-.501-.961-.752-1.602-.752-.441 0-.841.128-1.2.385a2.09 2.09 0 0 0-.765 1.024c-.087.243-.13.49-.13.74 0 .516.166.979.5 1.386.412.505.944.758 1.595.758.652 0 1.185-.251 1.602-.752.333-.4.5-.864.5-1.392zm1.992 0A4.083 4.083 0 0 1 7.18 6.805c-.762.892-1.792 1.338-3.092 1.338-1.296 0-2.325-.446-3.086-1.338A4.083 4.083 0 0 1 0 4.075c0-.475.09-.96.27-1.459.181-.498.423-.924.726-1.278C1.758.446 2.79 0 4.088 0c1.3 0 2.33.446 3.092 1.338a4.09 4.09 0 0 1 1.002 2.736z" id="m"/>
        <radialGradient cx="799.43%" cy="-113.483%" fx="799.43%" fy="-113.483%" r="932.283%" gradientTransform="scale(-1 -.5024) rotate(-30.887 6.142 29.499)" id="e">
            <stop stop-color="#E59D30" offset="0%"/>
            <stop stop-color="#DF5233" offset="100%"/>
        </radialGradient>
        <radialGradient cx="353.503%" cy="-103.646%" fx="353.503%" fy="-103.646%" r="472.783%" gradientTransform="scale(-.99524 -1) rotate(-28.496 4.073 13.954)" id="h">
            <stop stop-color="#E59D30" offset="0%"/>
            <stop stop-color="#DF5233" offset="100%"/>
        </radialGradient>
        <radialGradient cx="256.466%" cy="-103.726%" fx="256.466%" fy="-103.726%" r="515.082%" gradientTransform="scale(-1 -.82935) rotate(-31.971 3.993 9.06)" id="k">
            <stop stop-color="#E59D30" offset="0%"/>
            <stop stop-color="#DF5233" offset="100%"/>
        </radialGradient>
        <radialGradient cx="137.226%" cy="-103.646%" fx="137.226%" fy="-103.646%" r="472.783%" gradientTransform="scale(-.99524 -1) rotate(-28.496 4.078 5.417)" id="n">
            <stop stop-color="#E59D30" offset="0%"/>
            <stop stop-color="#DF5233" offset="100%"/>
        </radialGradient>
        <linearGradient x1="50%" y1="0%" x2="50%" y2="100%" id="b">
            <stop stop-color="#38B1CB" offset="0%"/>
            <stop stop-color="#2A6184" offset="97.823%"/>
        </linearGradient>
    </defs>
    <g fill="none" fill-rule="evenodd">
        <path d="M49.09 43.429h-2.726a2.72 2.72 0 0 1 2.727-2.715v2.715M53.636 43.429H50.91v-2.715a2.72 2.72 0 0 1 2.727 2.715M46.364 48.857h2.727v-2.714h-2.727zM50.91 48.857h2.726v-2.714H50.91z" fill="#393939"/>
        <path d="M31.135 54.308a22.005 22.005 0 0 1-3.381-11.75c0-12.243 9.96-22.168 22.246-22.168 12.286 0 22.246 9.925 22.246 22.167 0 4.317-1.24 8.344-3.381 11.75l3.644 3.598a26.982 26.982 0 0 0 4.764-15.348c0-15.009-12.21-27.176-27.273-27.176-15.062 0-27.273 12.167-27.273 27.176 0 5.695 1.76 10.98 4.764 15.348l3.644-3.597" fill="#393939"/>
        <path d="m50 26.238-8.35 8.322v-4.317l-3.61-1.95-3.083 4.799 2.858-1.575v11.17l-1.221-3.086-5.685 5.665a18.956 18.956 0 0 0 1.787 6.305L50 34.324l17.304 17.247a18.956 18.956 0 0 0 1.787-6.305L50 26.238" fill="#393939"/>
        <g transform="translate(29.09 49.762)">
            <mask id="c" fill="#fff">
                <use xlink:href="#a"/>
            </mask>
            <path d="M38.3 6.106a22.346 22.346 0 0 1-15.278 8.163V9.187a.56.56 0 0 0 .45-.551c-.008-.949.122-2.843 1.228-3.662a.14.14 0 0 1 .222.111c0 .076.062.138.139.138h2.131c.077 0 .14.062.14.138v.297c0 .076.061.138.138.138h2.777a.138.138 0 0 0 .139-.138V.138a.138.138 0 0 0-.14-.138H27.47a.138.138 0 0 0-.139.138v.23a.138.138 0 0 1-.139.137h-2.131a.138.138 0 0 0-.139.138v.264a.138.138 0 0 1-.139.138h-6.772c-5.26.032-8.36 5.384-8.392 5.458 0 0 4.136-2.47 7.94-1.516 1.411.354 1.583 2.705 1.6 3.72.004.225.16.411.368.47v5.149a22.346 22.346 0 0 1-16.01-8.22L0 9.746a27.394 27.394 0 0 0 19.527 9.599c.458.023.918.036 1.382.036.711 0 1.415-.03 2.113-.082a27.392 27.392 0 0 0 18.796-9.552l-3.517-3.64" fill="url(#b)" mask="url(#c)"/>
        </g>
        <path fill="#393939" d="M23.636 80.524h-1.584v-3.012h-2.286v3.012h-1.584v-7.238h1.584v2.794h2.286v-2.794h1.584v7.238M32 76.649c0-.455-.173-.847-.52-1.178-.443-.423-.999-.634-1.665-.634-.459 0-.875.108-1.247.324a1.849 1.849 0 0 0-.796.863c-.09.205-.136.413-.136.625 0 .435.173.824.52 1.168.429.426.982.639 1.66.639.677 0 1.232-.212 1.665-.634.346-.338.519-.729.519-1.173zm1.636.258c0 .922-.334 1.731-1.001 2.428-.762.793-1.793 1.189-3.092 1.189-1.296 0-2.325-.396-3.087-1.19-.668-.696-1.001-1.505-1.001-2.427 0-.42.09-.853.27-1.296.18-.442.423-.821.726-1.136.762-.793 1.792-1.19 3.092-1.19s2.33.397 3.092 1.19c.667.696 1.001 1.507 1.001 2.432zM42.727 80.524H41.03l-.483-4.168-1.576 4.168h-.674l-1.505-4.168-.554 4.168h-1.693l1.11-7.238h1.678l1.32 3.86 1.396-3.86h1.693l.985 7.238M47.273 80.524h-3.637v-7.238h3.637v1.57h-1.975v1.235h1.867v1.57h-1.867v1.293h1.975v1.57"/>
        <g transform="translate(52.727 73.286)">
            <mask id="f" fill="#fff">
                <use xlink:href="#d"/>
            </mask>
            <path fill="url(#e)" mask="url(#f)" d="M3.636 7.238H0V0h1.653v5.668h1.983v1.57"/>
        </g>
        <g transform="translate(57.273 72.381)">
            <mask id="i" fill="#fff">
                <use xlink:href="#g"/>
            </mask>
            <path d="M6.189 4.074c0-.538-.166-1.004-.5-1.397-.426-.501-.96-.752-1.6-.752-.442 0-.842.128-1.2.385a2.09 2.09 0 0 0-.766 1.024c-.087.243-.13.49-.13.74 0 .516.166.979.5 1.386.412.505.944.758 1.595.758.652 0 1.185-.251 1.602-.752.333-.4.499-.864.499-1.392zm1.993 0A4.083 4.083 0 0 1 7.18 6.805c-.762.892-1.792 1.338-3.092 1.338-1.296 0-2.325-.446-3.086-1.338A4.082 4.082 0 0 1 0 4.075c0-.475.09-.96.27-1.459.181-.498.423-.924.726-1.278C1.758.446 2.79 0 4.088 0c1.3 0 2.33.446 3.092 1.338a4.09 4.09 0 0 1 1.002 2.736z" fill="url(#h)" mask="url(#i)"/>
        </g>
        <g transform="translate(65.455 72.381)">
            <mask id="l" fill="#fff">
                <use xlink:href="#j"/>
            </mask>
            <path d="M6.753 3.653c0 .831-.078 1.508-.236 2.032-.24.797-.634 1.41-1.185 1.84-.532.412-1.162.618-1.89.618-1.183 0-2.091-.479-2.724-1.437C.239 5.98 0 5.114 0 4.108c0-1.115.28-2.052.84-2.812C1.477.432 2.365 0 3.505 0c.762 0 1.408.232 1.936.696.378.33.7.816.969 1.459l-1.587.78c-.136-.357-.294-.626-.474-.804a1.277 1.277 0 0 0-.924-.38c-.73 0-1.238.446-1.525 1.338a3.256 3.256 0 0 0-.161 1.019c0 .728.194 1.334.583 1.82.287.362.67.543 1.15.543.427 0 .765-.148 1.014-.442.165-.194.272-.48.322-.86H3.43V3.653h3.324" fill="url(#k)" mask="url(#l)"/>
        </g>
        <g transform="translate(73.636 72.381)">
            <mask id="o" fill="#fff">
                <use xlink:href="#m"/>
            </mask>
            <path d="M6.19 4.074c0-.538-.167-1.004-.5-1.397-.427-.501-.961-.752-1.602-.752-.441 0-.841.128-1.2.385a2.09 2.09 0 0 0-.765 1.024c-.087.243-.13.49-.13.74 0 .516.166.979.5 1.386.412.505.944.758 1.595.758.652 0 1.185-.251 1.602-.752.333-.4.5-.864.5-1.392zm1.992 0A4.083 4.083 0 0 1 7.18 6.805c-.762.892-1.792 1.338-3.092 1.338-1.296 0-2.325-.446-3.086-1.338A4.083 4.083 0 0 1 0 4.075c0-.475.09-.96.27-1.459.181-.498.423-.924.726-1.278C1.758.446 2.79 0 4.088 0c1.3 0 2.33.446 3.092 1.338a4.09 4.09 0 0 1 1.002 2.736z" fill="url(#n)" mask="url(#o)"/>
        </g>
    </g>
</svg>
