<?xml version="1.0" encoding="UTF-8"?>
<svg width="30px" height="30px" viewBox="0 0 30 30" version="1.1" xmlns="http://www.w3.org/2000/svg" xmlns:xlink="http://www.w3.org/1999/xlink">
    <title>UI/Icons/Social/YouTube-White</title>
    <g id="UI/Icons/Social/YouTube-White" stroke="none" stroke-width="1" fill="none" fill-rule="evenodd">
        <rect id="Bounding-box" x="0" y="0" width="30" height="30"></rect>
        <path d="M15.5,3 C22.4207317,3 28,8.57926829 28,15.5 C28,22.4207317 22.4207317,28 15.5,28 C8.57926829,28 3,22.4207317 3,15.5 C3,8.57926829 8.57926829,3 15.5,3 Z M15.9483944,13.5894854 L15.4220445,13.5896102 C15.0930909,13.5906332 14.7580382,13.5933717 14.4246304,13.5976246 L13.9267203,13.6051145 C12.1951289,13.6351284 10.615596,13.7041092 10.3086981,13.7829479 C10.0757702,13.8429027 9.90072412,13.9440764 9.71867622,14.1262827 C9.399859,14.4447925 9.20987568,14.9014794 9.1333222,15.533815 C8.95920972,16.976477 8.95547541,18.7203181 9.12305283,20.2154406 C9.1954052,20.8585494 9.34477784,21.2763593 9.62391795,21.6206309 C9.79849722,21.835625 10.0991097,22.0182997 10.3679804,22.0726338 C10.5565633,22.1110423 11.5008785,22.1639711 12.8765071,22.2136212 C13.0814277,22.2211155 13.6238371,22.2337622 14.0822243,22.241725 C15.0372756,22.2585873 16.7933377,22.2487509 17.7969351,22.2206471 C18.4723795,22.2014429 19.7037701,22.1517928 19.9334306,22.1339937 C19.9983143,22.1288414 20.1481537,22.1194734 20.2667183,22.1124475 C20.6658233,22.0899644 20.91929,22.0061214 21.1568858,21.8182943 C21.4654337,21.5751964 21.7034963,21.1264723 21.8043228,20.5999943 C21.9000147,20.1020886 21.9639648,19.2149451 21.9765682,18.2078921 C21.9877711,17.3661831 21.9728338,16.9118382 21.912618,16.1830129 C21.8355977,15.2621449 21.7753819,14.9633077 21.5858654,14.5796908 C21.3351994,14.0714803 20.9729708,13.8035573 20.4571684,13.7445394 C20.0585302,13.6991049 18.5582687,13.6344661 17.16957,13.6035519 C16.7939503,13.5952086 16.3805408,13.5906847 15.9483944,13.5894854 L15.9483944,13.5894854 Z M16.5324024,14.9829804 L16.5325711,16.0211193 C16.5336793,16.4560843 16.5400832,16.7928655 16.5468728,16.7928655 C16.5552751,16.7928655 16.6294946,16.7268215 16.7125831,16.6467257 C16.9035,16.461709 17.0626752,16.3811447 17.2647951,16.3652192 C17.6260901,16.3380522 17.8408133,16.5240057 17.9393059,16.9497784 C17.9612191,17.0458518 17.9692539,17.1516979 17.9720268,17.666451 L17.9729644,17.9345175 C17.9730689,17.9845189 17.97315,18.0373031 17.9732118,18.093052 L17.9730073,19.0205154 C17.9708189,19.9701536 17.9558436,20.0076063 17.8534166,20.2360501 C17.7913336,20.3751639 17.6531639,20.5114674 17.5388005,20.5447235 C17.242856,20.6327821 17.0052601,20.5615858 16.7307879,20.3025624 C16.6453654,20.2219982 16.5660112,20.1564226 16.5543415,20.1564226 C16.539871,20.1564226 16.5324024,20.2191878 16.5324024,20.3433129 L16.5324024,20.3433129 L16.5324024,20.5302032 L15.8266167,20.5302032 L15.8266167,14.9829804 L16.5324024,14.9829804 Z M13.6891876,16.4190849 L13.6943223,18.0959453 C13.6992236,19.5373777 13.700551,19.7412255 13.7270741,19.8142231 L13.7353626,19.8324751 L13.7353626,19.8324751 C13.7918813,19.930187 13.8721691,19.9545436 13.9982022,19.9194139 C14.0728886,19.8988044 14.1233018,19.8622694 14.2437335,19.7418915 L14.2437335,19.7418915 L14.3959069,19.5905993 L14.3959069,16.4190849 L15.1016926,16.4190849 L15.1016926,20.5302032 L14.3959069,20.5302032 L14.3953364,20.2411764 C14.3933914,20.134486 14.3862599,20.0974046 14.3707002,20.0974046 C14.3566966,20.0974046 14.2927464,20.1508019 14.2287962,20.2163774 C14.0892262,20.35877 13.9235159,20.4739956 13.7825455,20.5264561 C13.4903353,20.6365293 13.2130623,20.5723589 13.0944978,20.3681379 C13.0028634,20.21 12.987429,20.1554886 12.9848488,18.9673796 L12.9843355,16.4190849 L13.6891876,16.4190849 Z M19.3700157,16.4242372 C19.8736815,16.2401573 20.4800411,16.4729505 20.6989653,16.9343213 C20.8137955,17.1778876 20.8277992,17.2818717 20.8399358,17.9676045 L20.8399358,17.9676045 L20.8497383,18.5821411 L19.3457426,18.5924458 L19.3401411,19.0055718 C19.3322057,19.5882573 19.3709492,19.7676533 19.5277905,19.8739794 C19.6594251,19.9629747 19.8620118,19.9559488 19.9721741,19.8589907 C20.0758014,19.7676533 20.1052091,19.6697584 20.1154785,19.3845047 L20.1154785,19.3845047 L20.1243475,19.1334441 L20.8511387,19.1334441 L20.8399358,19.4135453 C20.8334007,19.5676479 20.8142623,19.7451703 20.7979247,19.807467 C20.6994321,20.1723481 20.4384968,20.4309031 20.0613309,20.5372292 C19.5525303,20.6796218 18.9928498,20.4454234 18.7692576,19.9971677 C18.6650079,19.7871698 18.6447156,19.7173657 18.6408473,18.9878486 L18.6400158,18.658961 L18.6400158,18.658961 L18.6399569,18.4645735 C18.6399569,18.4018669 18.6399715,18.3426001 18.6400066,18.2865546 L18.6405108,17.987191 C18.6423419,17.4147537 18.6496428,17.312903 18.6754329,17.2017758 C18.7655233,16.8139433 18.990049,16.5633511 19.3700157,16.4242372 Z M10.2204749,14.982512 L11.5088139,14.9876644 L12.7980865,14.9928167 L12.8036879,15.361445 L12.8088226,15.7296048 L12.3625719,15.7352256 L11.9158543,15.7399096 L11.9060518,18.1301382 L11.8962492,20.5203669 L11.5083471,20.5255193 C11.4709456,20.5260462 11.4368043,20.5264341 11.405679,20.526672 L11.2531628,20.5262109 C11.1529671,20.5241799 11.1159522,20.5178493 11.111576,20.5058466 C11.1064414,20.4922631 11.0999063,19.4140137 11.0975724,18.1104656 L11.0975724,18.1104656 L11.0924377,15.7399096 L10.6564563,15.7352256 L10.2204749,15.7296048 L10.2204749,14.982512 Z M16.6406975,17.1577465 L16.5716127,17.210207 L16.5716127,19.71894 L16.6402307,19.7714005 C16.7956716,19.8903733 16.9660498,19.9151983 17.0836807,19.8365076 C17.1298929,19.805125 17.1602342,19.7615641 17.1840405,19.6936466 C17.2054579,19.6304957 17.2131526,19.5552086 17.2143486,19.1452157 L17.21414,18.7699235 C17.213873,18.6703391 17.2134757,18.5592172 17.2129814,18.4350645 C17.2087803,17.3352689 17.2064464,17.2706302 17.1709704,17.1984971 C17.0799464,17.0144171 16.8507528,16.9966181 16.6406975,17.1577465 Z M19.7392461,17.0017704 C19.5501964,17.0017704 19.4302315,17.0935762 19.37375,17.2818717 C19.3494769,17.3619675 19.3242703,17.9142073 19.3424751,17.9619838 C19.3522777,17.988214 19.4073588,17.9924296 19.7383126,17.9924296 L20.1234139,17.9924296 L20.1168788,17.643474 C20.1103438,17.3230906 20.1061427,17.2860873 20.0636648,17.1994339 C19.9964472,17.062662 19.8965542,17.0017704 19.7392461,17.0017704 Z M19.7172543,8.91895828 L19.3200165,8.92364225 L18.9227786,8.92926301 L18.9181107,10.5274328 L18.9129761,12.1260709 L18.7804078,12.2614376 C18.6422382,12.4028934 18.5311423,12.456759 18.4307825,12.431934 C18.3215538,12.4042986 18.3238877,12.4469227 18.3150187,10.6154913 L18.3150187,10.6154913 L18.3066165,8.92926301 L17.511674,8.92926301 L17.511826,11.3618825 C17.5118767,11.4209749 17.5119443,11.4775347 17.5120344,11.5316846 L17.5128902,11.8286488 C17.5161333,12.5486793 17.5280246,12.7146806 17.5716262,12.82976 L17.5895082,12.8715104 C17.5959944,12.8852866 17.6030211,12.8992498 17.6106334,12.9143826 C17.6895208,13.0712956 17.8048178,13.1476442 18.001803,13.1738745 C18.2608711,13.2085358 18.5409448,13.0904998 18.8004798,12.8370972 L18.8004798,12.8370972 L18.9134428,12.7265555 L18.9139248,12.9878407 C18.915686,13.0891857 18.923012,13.1091576 18.9475185,13.1157933 C18.9960646,13.1298452 19.598223,13.130782 19.6631068,13.1171984 L19.6631068,13.1171984 L19.7172543,13.1059569 L19.7172543,8.91895828 Z M16.4576634,9.06228769 C16.0931008,8.82527893 15.6762578,8.8004539 15.2897561,8.99202817 C15.008282,9.13207881 14.8267009,9.36346681 14.7328762,9.70305446 C14.6936659,9.84591547 14.6908651,9.90821224 14.6833965,10.9035554 C14.6740607,12.1888361 14.688998,12.3415334 14.8491068,12.6333446 C15.0064148,12.9200034 15.3331675,13.1298452 15.6888611,13.1729377 C15.7952891,13.1860528 16.0123462,13.1654433 16.1374458,13.1312503 C16.420787,13.0520913 16.6924585,12.8272609 16.8124234,12.5719846 C16.937523,12.3073404 16.9431244,12.2366125 16.9431244,11.014097 L16.9430796,10.8358887 C16.9430476,10.7798314 16.9429963,10.7270439 16.9429193,10.6772996 L16.942096,10.4135392 C16.9396235,9.95180241 16.9315714,9.86301195 16.9067148,9.75551489 C16.8310949,9.43091594 16.6901245,9.21264305 16.4576634,9.06228769 Z M14.3038967,7.50065289 L13.9581395,7.50070429 C13.8649705,7.50192508 13.8285494,7.50481641 13.8231035,7.51002082 C13.8184356,7.51423639 13.6938028,7.98872231 13.4720778,8.84869877 C13.3661166,9.25854593 13.2769598,9.58595527 13.2741591,9.57658733 C13.2708915,9.5662826 13.1443916,9.09835424 12.9922182,8.53627813 C12.9290071,8.30188458 12.8700912,8.08481196 12.8225951,7.91104841 L12.8225951,7.91104841 L12.7715373,7.72498376 C12.734317,7.59002559 12.7113665,7.50877176 12.7098106,7.50721044 C12.7070098,7.50440006 12.5848277,7.50240938 12.4143912,7.50153113 L12.4143912,7.50153113 L11.9491122,7.50170912 L11.8294456,7.50252647 C11.8009714,7.50276067 11.7789156,7.47512526 11.8382562,7.68449862 L11.8382562,7.68449862 L11.86889,7.78951303 C11.9409988,8.03165231 12.0807784,8.47572112 12.3354454,9.28852332 C12.4176003,9.55082551 12.5408328,9.92273254 12.608984,10.1143068 C12.8190393,10.7054235 12.868519,10.9368115 12.8465799,11.2304963 C12.8381777,11.3450193 12.8332764,11.8068585 12.8325762,12.2435214 L12.8328497,12.5604778 C12.8339328,12.8610732 12.8374775,13.0951252 12.8437791,13.1054885 C12.8563825,13.126098 13.6125814,13.1354659 13.684467,13.1157933 C13.7106072,13.10885 13.7168031,13.0590216 13.7181758,12.4449232 L13.7181758,12.4449232 L13.7185426,10.8281435 L13.7759578,10.6454687 C13.7865383,10.6120564 13.8024092,10.5605328 13.8213055,10.4984789 L13.8213055,10.4984789 L13.8848061,10.2883075 C13.9074887,10.2127742 13.9309319,10.1342917 13.952871,10.0604412 C14.0186883,9.83842112 14.0985093,9.57284016 14.1293174,9.46979287 C14.4145258,8.53721492 14.6871308,7.61915727 14.6941327,7.56716523 L14.6941327,7.56716523 L14.7030017,7.50299487 L14.3038967,7.50065289 Z M15.8193975,9.59556355 L15.8891138,9.60609633 C16.0170141,9.64122608 16.0823646,9.72085353 16.1197078,9.88947637 C16.1472483,10.0140699 16.1505159,10.1695776 16.1444476,11.0843565 C16.1374458,12.2614376 16.1365122,12.2703371 16.0002097,12.3743212 C15.9334588,12.4253764 15.8172282,12.4478595 15.7224699,12.4277184 C15.6496508,12.4117929 15.5511582,12.2970357 15.5203501,12.1921148 C15.4797394,12.0525326 15.4792726,9.97753496 15.5194165,9.83795272 C15.5726305,9.65668318 15.7238703,9.56206703 15.8891138,9.60609633 Z" id="Combined-Shape" fill="#FFFFFF"></path>
    </g>
</svg>